# xmcd
#
# Track frame offsets:
#	150
#	13017
#	20827
#	33077
#	44600
#	58102
#	63610
#	73222
#	84337
#	94572
#	104087
#	117057
#	134160
#	146620
#	161275
#	172367
#	184080
#	195450
#	205995
#	216220
#
# Disc length: 3082
#
# Revision: 2
# Processed by: cddbd v1.5.1PL0 Copyright (c) Steve Scherf et al.
# Submitted via: EasyCDDAExtractor 5.1.0
# Normalized: r1:DSETVAR1
#
DISCID=310c0814
DTITLE=Various Artist - Mega Country CD2
DYEAR=2003
DGENRE=Country
TTITLE0=Lynn Anderson - Rose garden
TTITLE1=Roger Miller - Dang me
TTITLE2=Frankie Laine - High noon
TTITLE3=Patsy Cline - Walkin' after midnight
TTITLE4=Charlie Rich - The most beautiful girl
TTITLE5=Willie Nelson - the ghost
TTITLE6=Bob Gallion - Wall ti wall
TTITLE7=Dave Duddley - Cowboy boots
TTITLE8=Faron Young - Hello Walls
TTITLE9=Freddy Fender - Your cheatin' heart
TTITLE10=Jack Greene - Statue of fools
TTITLE11=Kenny Rogers - Something burning
TTITLE12=David Houston - Mountain of love
TTITLE13=Don Gibson - Woman
TTITLE14=Hank Locklin - Let me be the one
TTITLE15=Johnny Paycheck - Take this job and shove it
TTITLE16=Ray Price - Crazy arms
TTITLE17=Stonewall Jackson - Waterloo
TTITLE18=Ferlin Husky - Wings of a dove
TTITLE19=Lee Greenwood - Going, going, gone
EXTD=
EXTT0=
EXTT1=
EXTT2=
EXTT3=
EXTT4=
EXTT5=
EXTT6=
EXTT7=
EXTT8=
EXTT9=
EXTT10=
EXTT11=
EXTT12=
EXTT13=
EXTT14=
EXTT15=
EXTT16=
EXTT17=
EXTT18=
EXTT19=
PLAYORDER=
